<svg width="24" height="24" viewBox="0 0 24 24" fill="none" xmlns="http://www.w3.org/2000/svg">
<path d="M15.1741 0C13.7683 0.000889561 12.383 0.33702 11.1331 0.980484C9.88331 1.62395 8.80505 2.55618 7.98788 3.69978C7.17071 4.84339 6.6382 6.16537 6.43457 7.55598C6.23093 8.94658 6.36205 10.3657 6.81703 11.6955L0.199302 18.3125C0.0718461 18.4397 0.000158583 18.6124 0 18.7925V23.3208C0 23.5009 0.0715833 23.6737 0.199003 23.8011C0.326422 23.9284 0.49924 24 0.679438 24H5.20902C5.38922 24 5.56204 23.9284 5.68946 23.8011C5.81688 23.6737 5.88846 23.5009 5.88846 23.3208V21.283H7.92678C8.10697 21.283 8.27979 21.2115 8.40721 21.0841C8.53463 20.9567 8.60621 20.7839 8.60621 20.6038V18.566H10.6445C10.8247 18.5659 10.9974 18.4942 11.1247 18.3668L12.308 17.1849C13.5212 17.5999 14.8103 17.7458 16.0856 17.6125C17.3609 17.4792 18.5919 17.07 19.6931 16.4131C20.7942 15.7563 21.7391 14.8677 22.4621 13.809C23.1851 12.7502 23.6688 11.5469 23.8797 10.2824C24.0906 9.01797 24.0236 7.72278 23.6833 6.48684C23.343 5.2509 22.7376 4.10385 21.9092 3.12539C21.0808 2.14692 20.0492 1.36051 18.8861 0.820791C17.7231 0.281072 16.4564 0.000988006 15.1741 0ZM15.1741 16.3019C14.2267 16.3036 13.2877 16.1241 12.4077 15.7732C12.2825 15.7187 12.1438 15.7032 12.0097 15.7286C11.8756 15.7541 11.7522 15.8193 11.6558 15.9158L10.3626 17.2075H7.92678C7.74658 17.2075 7.57376 17.2791 7.44634 17.4065C7.31892 17.5339 7.24734 17.7066 7.24734 17.8868V19.9245H5.20902C5.02883 19.9245 4.85601 19.9961 4.72859 20.1235C4.60117 20.2509 4.52959 20.4236 4.52959 20.6038V22.6415H1.35888V19.0743L8.08644 12.3475C8.18301 12.2511 8.24827 12.1278 8.27372 11.9937C8.29917 11.8596 8.28363 11.721 8.22913 11.5958C7.63726 10.1109 7.53739 8.47524 7.94419 6.9293C8.35099 5.38337 9.24302 4.00861 10.4892 3.00701C11.7354 2.00542 13.2701 1.42979 14.8677 1.36469C16.4654 1.29959 18.0418 1.74846 19.3654 2.64535C20.689 3.54224 21.69 4.83986 22.2213 6.34757C22.7526 7.85529 22.7862 9.4936 22.3172 11.0218C21.8481 12.55 20.9012 13.8876 19.6155 14.838C18.3298 15.7884 16.7731 16.3015 15.1741 16.3019ZM18.5713 6.56604C18.5713 6.78994 18.5049 7.00882 18.3805 7.19499C18.256 7.38115 18.0792 7.52625 17.8723 7.61194C17.6653 7.69762 17.4377 7.72004 17.218 7.67636C16.9983 7.63268 16.7965 7.52486 16.6382 7.36654C16.4798 7.20821 16.372 7.0065 16.3283 6.78689C16.2846 6.56729 16.307 6.33967 16.3927 6.13281C16.4784 5.92595 16.6236 5.74915 16.8098 5.62475C16.996 5.50036 17.2149 5.43396 17.4389 5.43396C17.7392 5.43396 18.0273 5.55323 18.2396 5.76554C18.452 5.97784 18.5713 6.26579 18.5713 6.56604Z" fill="black"/>
</svg>

