<svg width="24" height="18" viewBox="0 0 24 18" fill="none" xmlns="http://www.w3.org/2000/svg">
<path d="M12.3514 12.0118C11.2487 12.0118 10.2406 11.5845 9.48456 10.8063L1.21496 2.29164C0.915676 1.98646 0.931427 1.49816 1.24646 1.20824C1.56149 0.918312 2.06554 0.933571 2.36482 1.23876L10.6344 9.7534C11.5323 10.6842 13.1704 10.6842 14.0683 9.7534L22.3379 1.25401C22.6372 0.94883 23.1412 0.933571 23.4562 1.2235C23.7713 1.51342 23.787 2.00172 23.4877 2.3069L15.2181 10.8215C14.4621 11.5998 13.454 12.027 12.3514 12.027V12.0118Z" fill="black"/>
<path d="M21.75 18H2.25C1.005 18 0 16.995 0 15.75V2.25C0 1.005 1.005 0 2.25 0H21.75C22.995 0 24 1.005 24 2.25V15.75C24 16.995 22.995 18 21.75 18ZM2.25 1.5C1.83 1.5 1.5 1.83 1.5 2.25V15.75C1.5 16.17 1.83 16.5 2.25 16.5H21.75C22.17 16.5 22.5 16.17 22.5 15.75V2.25C22.5 1.83 22.17 1.5 21.75 1.5H2.25Z" fill="black"/>
</svg>


